<?xml version="1.0" encoding="UTF-8"?>
<svg version="1.1" xmlns="http://www.w3.org/2000/svg" width="512" height="512">
<path d="M0 0 C0.8225528 0.00021149 1.64510559 0.00042297 2.49258423 0.00064087 C56.84934238 0.1390868 107.92235363 20.32111361 147.6875 57.375 C149.24803766 58.7314276 150.81050963 60.08563333 152.375 61.4375 C156.53279501 65.13735605 160.12966108 69.10410777 163.6875 73.375 C164.84572266 74.71884766 164.84572266 74.71884766 166.02734375 76.08984375 C172.08429089 83.19205758 177.59785331 90.53802412 182.6875 98.375 C183.05198242 98.93493652 183.41646484 99.49487305 183.79199219 100.07177734 C203.57854303 130.85182665 216.67071255 168.19424798 216.890625 205.01171875 C216.89768463 205.80515686 216.90474426 206.59859497 216.91201782 207.41607666 C217.14336982 241.075122 217.14336982 241.075122 213.6875 257.375 C213.38150879 258.82036133 213.38150879 258.82036133 213.06933594 260.29492188 C204.68248387 298.60342518 187.40782728 331.94166307 161.6875 361.375 C160.96433594 362.22191406 160.24117188 363.06882812 159.49609375 363.94140625 C155.92022934 368.07709288 152.24073589 371.85319609 148.05859375 375.375 C146.2108234 376.93358059 144.39999298 378.51516701 142.59765625 380.125 C134.93654714 386.91278221 126.99920785 392.82179788 118.35546875 398.30078125 C116.67054304 399.38592076 115.02439153 400.51805003 113.375 401.65625 C110.6875 403.375 110.6875 403.375 108.6875 403.375 C107.71492799 398.29801616 107.37663341 393.29750581 107.11499023 388.14770508 C107.06607635 387.23790894 107.01716248 386.32811279 106.96676636 385.39074707 C106.80647864 382.39217773 106.6511448 379.39337559 106.49609375 376.39453125 C106.38563647 374.29952378 106.27496111 372.20452781 106.16407776 370.10954285 C105.93247464 365.71921748 105.70328225 361.32877475 105.47583008 356.93823242 C105.18535641 351.33424085 104.88929349 345.73056177 104.59144497 340.12695789 C104.36195915 335.79885392 104.13529277 331.47060577 103.90947151 327.14230919 C103.80144882 325.07757979 103.6926103 323.0128929 103.58291435 320.94825172 C102.48667748 300.25326547 102.48667748 300.25326547 102.6875 291.375 C103.33170898 291.12991699 103.97591797 290.88483398 104.63964844 290.63232422 C119.99881624 284.73474321 136.80689343 276.3691947 144.87890625 261.125 C162.1578441 214.38004737 141.01592329 138.28283664 135.6875 90.375 C132.7175 90.375 129.7475 90.375 126.6875 90.375 C126.6875 138.225 126.6875 186.075 126.6875 235.375 C122.0675 235.375 117.4475 235.375 112.6875 235.375 C112.6875 187.525 112.6875 139.675 112.6875 90.375 C107.7375 90.375 102.7875 90.375 97.6875 90.375 C97.6875 138.225 97.6875 186.075 97.6875 235.375 C93.0675 235.375 88.4475 235.375 83.6875 235.375 C83.6875 187.525 83.6875 139.675 83.6875 90.375 C79.3975 90.375 75.1075 90.375 70.6875 90.375 C70.6875 138.225 70.6875 186.075 70.6875 235.375 C65.7375 235.375 60.7875 235.375 55.6875 235.375 C55.6875 187.525 55.6875 139.675 55.6875 90.375 C51.7275 90.375 47.7675 90.375 43.6875 90.375 C42.54464556 101.02543637 41.40549838 111.67626263 40.27076149 122.3275671 C39.7434411 127.2762643 39.2149628 132.22483146 38.68359375 137.1730957 C26.16746394 204.23196908 26.16746394 204.23196908 38.52734375 266.83203125 C48.36103262 277.87432992 59.12045271 284.79688265 72.86035156 289.94189453 C73.57789612 290.21067413 74.29544067 290.47945374 75.034729 290.75637817 C75.58014343 290.96052338 76.12555786 291.16466858 76.6875 291.375 C75.96498334 314.77366825 74.73876138 338.14761363 73.53076172 361.52514648 C73.24129949 367.12972873 72.9568449 372.73455354 72.67357635 378.33945179 C72.45289414 382.69156607 72.22907297 387.04351471 72.00434875 391.39542198 C71.89800147 393.4641835 71.79275153 395.53300175 71.68864441 397.60187721 C71.54375512 400.47410413 71.39449963 403.34607251 71.24414062 406.21801758 C71.20255325 407.06104935 71.16096588 407.90408112 71.11811829 408.7726593 C70.88983016 413.04162815 70.49401346 417.16622612 69.6875 421.375 C61.63958906 424.31026199 53.63128397 426.7827407 45.25 428.5625 C44.18108521 428.79404785 44.18108521 428.79404785 43.09057617 429.03027344 C29.39290179 431.81849637 15.8143777 432.77955655 1.875 432.75 C1.08011169 432.75078552 0.28522339 432.75157104 -0.53375244 432.75238037 C-17.76172395 432.73215318 -34.70145902 431.17497576 -51.3125 426.375 C-52.7331981 407.53542076 -53.88435075 388.69786823 -54.8203125 369.828125 C-54.95172077 367.22254167 -55.08338909 364.61697143 -55.21530151 362.01141357 C-55.52214485 355.94216489 -55.82606936 349.87277404 -56.12883365 343.80332065 C-56.47476117 336.87160794 -56.82411256 329.94006897 -57.17369294 323.00853968 C-57.89032747 308.79754456 -58.60285282 294.58634568 -59.3125 280.375 C-58.49048096 280.03300568 -57.66846191 279.69101135 -56.8215332 279.33865356 C-55.74218506 278.88932465 -54.66283691 278.43999573 -53.55078125 277.97705078 C-51.94650269 277.3093718 -51.94650269 277.3093718 -50.30981445 276.62820435 C-27.57209124 267.12135614 -14.88966343 252.12124583 -5.52197266 229.46289062 C5.22566463 201.84066237 5.87900575 169.4567607 -6.1015625 142.1796875 C-10.17399485 133.40908904 -15.19083014 125.87115799 -21.3125 118.375 C-22.02792969 117.41400391 -22.02792969 117.41400391 -22.7578125 116.43359375 C-33.35579965 102.75774806 -51.07161837 93.64712451 -68 91.5 C-85.6381445 90.48631353 -101.47885707 98.1618196 -114.43237305 109.60375977 C-133.7700242 127.56353703 -144.92236642 152.98951633 -146.23999023 179.22729492 C-146.84888933 198.83712599 -143.14278359 218.40148752 -135.3125 236.375 C-134.76142578 237.66277344 -134.76142578 237.66277344 -134.19921875 238.9765625 C-125.85634766 257.03844838 -111.95609908 269.78744839 -93.49902344 276.6574707 C-90.78292119 277.60283126 -88.0470664 278.4846658 -85.3125 279.375 C-85.06914435 294.01553022 -85.83431901 308.57574094 -86.625 323.19140625 C-86.75991051 325.7454171 -86.89442524 328.29944889 -87.02856445 330.85350037 C-87.34402271 336.84195391 -87.66341116 342.83018478 -87.98479557 348.81832212 C-88.35111358 355.64790243 -88.71227158 362.47775274 -89.07304573 369.3076278 C-89.81388264 383.33038794 -90.56103855 397.35280548 -91.3125 411.375 C-123.60536317 400.94092247 -155.473077 371.72806425 -174.3125 344.375 C-174.71581543 343.80007813 -175.11913086 343.22515625 -175.53466797 342.6328125 C-193.0105806 317.66148161 -205.08609567 290.43236043 -211.5625 260.625 C-211.71380371 259.92987305 -211.86510742 259.23474609 -212.02099609 258.51855469 C-214.81879006 244.74139526 -215.72108569 231.08052731 -215.6875 217.0625 C-215.68728851 216.2399472 -215.68707703 215.41739441 -215.68685913 214.56991577 C-215.54885104 160.38506166 -195.26630833 109.03274553 -158.3125 69.375 C-156.9560724 67.81446234 -155.60186667 66.25199037 -154.25 64.6875 C-150.5409496 60.52930677 -146.6207044 56.90238516 -142.3125 53.375 C-141.7664209 52.92721191 -141.2203418 52.47942383 -140.65771484 52.01806641 C-109.68038457 26.69997676 -74.32205391 8.23129719 -34.3125 2.375 C-32.58229614 2.11444824 -32.58229614 2.11444824 -30.81713867 1.84863281 C-20.52191709 0.41787309 -10.38790906 -0.02488832 0 0 Z " fill="#000000" transform="translate(255.3125,39.625)"/>
<path d="M0 0 C0.96988861 0.00182281 1.93977722 0.00364563 2.9390564 0.00552368 C17.28821045 0.05090947 31.25780259 0.54677062 45.375 3.3125 C46.28797852 3.47878906 47.20095703 3.64507812 48.14160156 3.81640625 C89.7736228 11.47613077 128.53552206 29.71874883 161.375 56.3125 C161.91946777 56.75255371 162.46393555 57.19260742 163.02490234 57.64599609 C177.09673929 69.12424863 190.31180647 81.88969064 201.375 96.3125 C202.13425781 97.24320312 202.89351563 98.17390625 203.67578125 99.1328125 C229.5346216 131.38418914 246.00294761 170.83764646 253.375 211.3125 C253.53871094 212.14813477 253.70242188 212.98376953 253.87109375 213.84472656 C259.16156862 241.55413521 258.79178597 273.66343304 253.375 301.3125 C253.20871094 302.22547852 253.04242188 303.13845703 252.87109375 304.07910156 C244.6647169 348.68227944 224.38935466 390.37529656 194.375 424.3125 C193.65054687 425.1478125 192.92609375 425.983125 192.1796875 426.84375 C182.4349286 437.91897413 172.03537586 448.26364912 160.375 457.3125 C159.44042969 458.075625 158.50585938 458.83875 157.54296875 459.625 C125.27895064 485.46934827 85.85395618 501.93970036 45.375 509.3125 C44.53936523 509.47621094 43.70373047 509.63992188 42.84277344 509.80859375 C15.23007179 515.08060464 -17.08458544 514.86894657 -44.625 509.3125 C-45.52686035 509.13557617 -46.4287207 508.95865234 -47.35791016 508.77636719 C-53.83099895 507.47748713 -60.23388488 505.96592874 -66.625 504.3125 C-67.44500488 504.10286621 -68.26500977 503.89323242 -69.10986328 503.67724609 C-102.71376223 494.8889504 -133.72080829 478.09979458 -160.625 456.3125 C-161.16946777 455.87244629 -161.71393555 455.43239258 -162.27490234 454.97900391 C-176.34673929 443.50075137 -189.56180647 430.73530936 -200.625 416.3125 C-201.38425781 415.38179688 -202.14351562 414.45109375 -202.92578125 413.4921875 C-210.77465998 403.70299585 -217.24417978 393.09953526 -223.625 382.3125 C-224.20894531 381.33506836 -224.20894531 381.33506836 -224.8046875 380.33789062 C-239.9365154 354.71049037 -249.31326154 324.6669143 -253.625 295.3125 C-253.80232666 294.10787109 -253.97965332 292.90324219 -254.16235352 291.66210938 C-255.761325 280.00482646 -255.9834053 268.44063902 -255.9375 256.6875 C-255.93567719 255.71761139 -255.93385437 254.74772278 -255.93197632 253.7484436 C-255.88659053 239.39928955 -255.39072938 225.42969741 -252.625 211.3125 C-252.45871094 210.39952148 -252.29242188 209.48654297 -252.12109375 208.54589844 C-244.46136923 166.9138772 -226.21875117 128.15197794 -199.625 95.3125 C-199.18494629 94.76803223 -198.74489258 94.22356445 -198.29150391 93.66259766 C-186.81325137 79.59076071 -174.04780936 66.37569353 -159.625 55.3125 C-158.69429688 54.55324219 -157.76359375 53.79398438 -156.8046875 53.01171875 C-147.01549585 45.16284002 -136.41203526 38.69332022 -125.625 32.3125 C-124.97337891 31.92320313 -124.32175781 31.53390625 -123.65039062 31.1328125 C-98.02299037 16.0009846 -67.9794143 6.62423846 -38.625 2.3125 C-37.42037109 2.13517334 -36.21574219 1.95784668 -34.97460938 1.77514648 C-23.31732646 0.176175 -11.75313902 -0.0459053 0 0 Z M-41.625 23.3125 C-42.51171387 23.48410645 -43.39842773 23.65571289 -44.31201172 23.83251953 C-75.94848391 30.05526736 -107.36804192 42.36571775 -133.625 61.3125 C-134.594375 62.00859375 -135.56375 62.7046875 -136.5625 63.421875 C-156.50242917 78.06526049 -175.13040327 95.18111565 -189.625 115.3125 C-190.58019531 116.60994141 -190.58019531 116.60994141 -191.5546875 117.93359375 C-193.3016497 120.35993014 -194.97737381 122.81774525 -196.625 125.3125 C-197.2128125 126.20195313 -197.800625 127.09140625 -198.40625 128.0078125 C-217.73964663 158.35490638 -230.08745931 191.61371388 -234.625 227.3125 C-234.75599342 228.33723671 -234.75599342 228.33723671 -234.88963318 229.38267517 C-235.52221668 234.65944546 -235.79734529 239.85570088 -235.828125 245.16796875 C-235.83513931 245.98373886 -235.84215363 246.79950897 -235.84938049 247.63999939 C-235.86679122 250.26005642 -235.8732335 252.87988723 -235.875 255.5 C-235.87567474 256.39644226 -235.87634949 257.29288452 -235.87704468 258.2164917 C-235.86079491 271.80342398 -235.33665662 284.96056733 -232.625 298.3125 C-232.45339355 299.19921387 -232.28178711 300.08592773 -232.10498047 300.99951172 C-225.88223264 332.63598391 -213.57178225 364.05554192 -194.625 390.3125 C-193.58085937 391.7665625 -193.58085937 391.7665625 -192.515625 393.25 C-177.87223951 413.18992917 -160.75638435 431.81790327 -140.625 446.3125 C-139.76003906 446.94929688 -138.89507812 447.58609375 -138.00390625 448.2421875 C-135.57756986 449.9891497 -133.11975475 451.66487381 -130.625 453.3125 C-129.73554688 453.9003125 -128.84609375 454.488125 -127.9296875 455.09375 C-97.58259362 474.42714663 -64.32378612 486.77495931 -28.625 491.3125 C-27.94184219 491.39982895 -27.25868439 491.4871579 -26.55482483 491.57713318 C-21.27805454 492.20971668 -16.08179912 492.48484529 -10.76953125 492.515625 C-9.95376114 492.52263931 -9.13799103 492.52965363 -8.29750061 492.53688049 C-5.67744358 492.55429122 -3.05761277 492.5607335 -0.4375 492.5625 C0.45894226 492.56317474 1.35538452 492.56384949 2.2789917 492.56454468 C15.86592398 492.54829491 29.02306733 492.02415662 42.375 489.3125 C43.26171387 489.14089355 44.14842773 488.96928711 45.06201172 488.79248047 C76.69848391 482.56973264 108.11804192 470.25928225 134.375 451.3125 C135.8290625 450.26835938 135.8290625 450.26835938 137.3125 449.203125 C157.24070926 434.56834632 175.91666144 417.45615135 190.375 397.3125 C191.51582031 395.75402344 191.51582031 395.75402344 192.6796875 394.1640625 C218.67598505 357.73326489 236.31505686 312.65231912 236.578125 267.4921875 C236.58871445 266.2728376 236.58871445 266.2728376 236.59951782 265.02885437 C236.71621764 247.62845507 236.82277711 230.4429649 233.375 213.3125 C233.17632324 212.31831055 232.97764648 211.32412109 232.77294922 210.29980469 C224.07502825 168.25008042 204.64776489 131.1345053 176.65332031 98.79052734 C175.4895038 97.44489228 174.33412454 96.09197166 173.1796875 94.73828125 C169.52092634 90.51277081 165.73910113 86.69918982 161.46484375 83.09765625 C160.0514755 81.89034917 158.66871533 80.64642129 157.31640625 79.37109375 C122.82578376 46.91284763 76.01620132 27.2404575 29.375 21.3125 C28.35026329 21.18150658 28.35026329 21.18150658 27.30482483 21.04786682 C22.02805454 20.41528332 16.83179912 20.14015471 11.51953125 20.109375 C10.70376114 20.10236069 9.88799103 20.09534637 9.04750061 20.08811951 C6.42744358 20.07070878 3.80761277 20.0642665 1.1875 20.0625 C0.29105774 20.06182526 -0.60538452 20.06115051 -1.5289917 20.06045532 C-15.11592398 20.07670509 -28.27306733 20.60084338 -41.625 23.3125 Z " fill="#000000" transform="translate(255.625,-0.3125)"/>
<path d="M0 0 C1.32 0.33 2.64 0.66 4 1 C5.30385944 4.65080644 4.66337258 7.07282736 3.625 10.75 C1.0529087 19.93260632 0.79191816 28.76601638 0.75 38.25 C0.729375 39.40113281 0.70875 40.55226562 0.6875 41.73828125 C0.58354573 64.79014101 10.93345864 88.64703378 25.71484375 106.02734375 C27 108 27 108 27 112 C24.44812949 112.96714727 23.3449431 113.13918757 20.7734375 112.1015625 C2.7719083 101.01918784 -8.60438034 84.79182334 -14.1171875 64.4609375 C-18.24379342 46.22613579 -14.76648675 24.43404069 -6 8 C-4.14970555 5.19175169 -2.18628561 2.55442305 0 0 Z " fill="#000000" transform="translate(137,190)"/>
</svg>
